<svg width="30" height="30" xmlns="http://www.w3.org/2000/svg">

 <g>
  <title>background</title>
  <rect fill="none" id="canvas_background" height="32" width="32" y="-1" x="-1"/>
 </g>
 <g>
  <title>Layer 1</title>
  <path id="svg_1" d="m447.894,207.354"/>
  <path fill="#2cc0fe" id="svg_2" d="m456.389,198.592c0,0 -1.19,-1.19 -4.212,0c0,0 -5.861,-5.448 -11.538,1.282c0,0 -8.012,-0.183 -7.6,7.417c0,0 -9.478,5.54 0.504,10.027c0,0 4.395,6.685 10.256,1.557c0,0 7.509,5.586 10.256,-0.824c0,0 6.227,7.326 9.981,0.275c0,0 6.685,6.501 11.629,-0.641c0,0 12.091,4.53 11.355,-9.731c0,0 -2.198,-4.005 -5.036,-3.73c0,0 -1.74,-9.615 -8.791,-7.142c0,0 -8.516,-4.212 -12.362,1.19c-0.001,0 -3.449,-0.166 -4.442,0.32z" class="st0"/>
  <path fill="#b5e7fe" opacity="0.33" id="svg_3" d="m462.395,200.646c0,0 4.891,-6.325 9.298,0c0,0 6.838,-2.806 8.459,4.196c0.101,0.435 0,1.786 0,1.786s3.022,-0.069 4.739,2.335c0,0 1.648,8.104 -8.104,7.211c0,0 0.036,-0.57 -2.974,2.383l1.852,-0.873c0,0 7.917,3.022 11.387,-4.327c0,0 1.959,-6.387 -4.359,-9.134c0,0 -2.083,-9.546 -10.382,-7.005c0,0 -6.444,-4.876 -11.046,0.893c0,0 -2.678,1.292 0.824,2.535" class="st1"/>
  <path fill="#b5e7fe" opacity="0.33" id="svg_4" d="m454.02,201.805c0,0 -5.002,-7.52 -9.409,-0.939c0,0 -6.726,-1.981 -8.348,5.305c-0.101,0.453 0,1.858 0,1.858s-3.421,-0.391 -4.229,2.533c-0.807,2.918 -0.129,6.035 9.658,6.478c0.88,0.04 5.185,0.973 0.911,3.402c0,0 -0.538,-0.348 -0.739,-0.414c-3.054,-1.017 -7.005,-0.927 -11.69,-5.391c0,0 -0.932,-5.626 3.62,-7.978c0,0 -0.137,-7.337 10.31,-8.421c0,0 0.61,-4.583 13.693,0.98c0,0 0.031,1.293 -3.471,2.586" class="st1"/>
  <ellipse fill="#b5e7fe" opacity="0.33" id="svg_5" ry="6.288" rx="11.538" cy="202.789" cx="468.287" class="st1"/>
  <path fill="#b5e7fe" opacity="0.33" id="svg_6" d="m453.524,203.267c-2.015,1.899 -4.165,5.453 -9.304,5.453s-9.304,-2.441 -9.304,-5.453c0,-1.815 2.792,-2.729 5.723,-4.033c1.934,-0.86 3.635,-2.503 5.677,-2.503c5.139,-0.001 9.763,4.128 7.208,6.536z" class="st1"/>
  <path id="svg_7" d="m486.513,206.083c-0.927,-1.055 -1.867,-1.767 -2.96,-2.242c-0.2,-0.086 -0.401,-0.162 -0.607,-0.229c-0.564,-2.941 -1.856,-5.064 -3.85,-6.311c-1.912,-1.199 -3.968,-1.531 -6.076,-0.942c-0.725,-0.672 -1.567,-1.218 -2.462,-1.595c-2.402,-1.011 -5.142,-0.754 -7.522,0.696c-0.266,0.163 -0.522,0.34 -0.723,0.502c-0.76,0.533 -1.406,1.203 -1.893,1.959c-0.547,-0.068 -1.1,-0.083 -1.685,-0.047c-0.356,0.022 -0.711,0.091 -1.069,0.183c-1.679,-0.891 -3.461,-1.122 -5.28,-0.618c-0.694,-0.638 -1.496,-1.158 -2.346,-1.515c-2.303,-0.969 -4.936,-0.725 -7.224,0.669c-0.255,0.155 -0.499,0.325 -0.693,0.48c-0.724,0.508 -1.339,1.145 -1.805,1.864c-0.52,-0.064 -1.039,-0.077 -1.594,-0.043c-1.002,0.061 -1.988,0.403 -3.103,1.074c-1.453,0.876 -2.538,2.413 -3.138,4.448c-0.205,0.696 -0.296,1.459 -0.27,2.242c-1.261,0.403 -2.368,1.195 -3.112,2.244c-1.852,2.614 -1.579,6.073 0.635,8.046c1.068,0.952 2.462,1.451 3.98,1.372c0.954,1.484 2.315,2.565 3.803,3.004c1.287,0.378 2.42,0.45 3.469,0.221c1.19,-0.261 2.226,-0.786 3.152,-1.599c1.374,1.15 3.248,1.805 5.119,1.805c0.403,0 0.806,-0.03 1.204,-0.093c1.572,-0.247 3.051,-0.961 4.279,-2.065c0.812,0.786 1.741,1.383 2.74,1.676c1.34,0.395 2.522,0.471 3.61,0.231c1.251,-0.273 2.339,-0.827 3.307,-1.687c1.434,1.212 3.397,1.902 5.359,1.902c0.421,0 0.839,-0.031 1.253,-0.097c1.919,-0.3 3.696,-1.269 5.069,-2.754c2.938,1.219 6.466,0.786 8.812,-1.141c1.803,-1.479 2.994,-3.512 3.271,-5.579c0.309,-2.306 -0.292,-4.514 -1.65,-6.061zm-36.323,13.839c-1.926,0.297 -4,-0.348 -5.421,-1.802c-0.171,-0.181 -0.476,-0.215 -0.724,-0.206c-0.249,0.005 -0.548,0.187 -0.711,0.376c-0.798,0.818 -1.663,1.306 -2.721,1.539c-0.752,0.163 -1.602,0.1 -2.597,-0.191c-1.208,-0.356 -2.323,-1.327 -3.057,-2.666c-0.176,-0.321 -0.525,-0.509 -0.895,-0.447c-1.183,0.17 -2.334,-0.153 -3.157,-0.889c-1.76,-1.569 -1.504,-4.116 -0.371,-5.716c0.631,-0.89 1.642,-1.518 2.774,-1.727c0.46,-0.085 0.774,-0.516 0.713,-0.98c-0.106,-0.811 -0.056,-1.605 0.149,-2.3c0.329,-1.119 1.007,-2.625 2.359,-3.438c0.863,-0.52 1.595,-0.782 2.303,-0.825c0.621,-0.035 1.189,-0.003 1.775,0.113c0.39,0.078 0.775,-0.114 0.953,-0.464c0.355,-0.695 0.898,-1.313 1.611,-1.815c0.179,-0.141 0.365,-0.27 0.559,-0.388c1.801,-1.097 3.853,-1.298 5.628,-0.55c0.795,0.335 1.539,0.852 2.15,1.497c0.239,0.252 0.7,0.305 1.024,0.188c0.956,-0.34 1.914,-0.369 2.865,-0.152c-1.453,0.923 -2.548,2.484 -3.157,4.548c-0.216,0.734 -0.31,1.54 -0.28,2.364c-1.324,0.416 -2.487,1.245 -3.265,2.344c-1.926,2.717 -1.643,6.314 0.659,8.366c1.116,0.995 2.61,1.491 4.158,1.424c0.03,0.048 0.069,0.086 0.1,0.133c-0.009,0.008 -0.021,0.01 -0.03,0.018c-0.98,0.881 -2.153,1.451 -3.394,1.646zm36.23,-8.011c-0.219,1.631 -1.183,3.255 -2.644,4.454c-1.987,1.628 -5.084,1.896 -7.527,0.642c-0.365,-0.189 -0.826,-0.096 -1.088,0.233c-1.15,1.437 -2.721,2.375 -4.421,2.642c-2.045,0.313 -4.217,-0.367 -5.713,-1.899c-0.157,-0.167 -0.429,-0.204 -0.665,-0.204c-0.021,0 -0.043,0 -0.062,0.001c-0.251,0.006 -0.552,0.191 -0.715,0.381c-0.843,0.864 -1.756,1.379 -2.869,1.623c-0.792,0.174 -1.689,0.108 -2.737,-0.201c-1.275,-0.374 -2.451,-1.398 -3.225,-2.809c-0.175,-0.321 -0.524,-0.499 -0.895,-0.447c-1.257,0.175 -2.468,-0.164 -3.336,-0.938c-1.86,-1.659 -1.591,-4.349 -0.394,-6.038c0.665,-0.939 1.733,-1.604 2.928,-1.823c0.46,-0.085 0.775,-0.516 0.713,-0.981c-0.114,-0.853 -0.059,-1.691 0.157,-2.422c0.347,-1.178 1.06,-2.763 2.487,-3.624c0.906,-0.546 1.677,-0.822 2.428,-0.868c0.654,-0.044 1.251,-0.003 1.867,0.118c0.401,0.077 0.775,-0.114 0.953,-0.463c0.376,-0.734 0.949,-1.386 1.7,-1.914c0.187,-0.148 0.382,-0.284 0.588,-0.409c1.897,-1.155 4.056,-1.367 5.926,-0.578c0.841,0.354 1.625,0.898 2.262,1.575c0.238,0.251 0.702,0.3 1.03,0.188c1.661,-0.588 3.385,-0.367 4.996,0.643c1.663,1.043 2.721,2.946 3.142,5.654c0.056,0.354 0.32,0.64 0.67,0.721c0.298,0.07 0.592,0.164 0.878,0.288c0.856,0.372 1.577,0.924 2.337,1.79c1.023,1.162 1.472,2.863 1.229,4.665z"/>
  <path fill="#a3875e" id="svg_8" d="m111.953,412.711l1.184,-0.686l0.95,-0.55l29.208,0l12.919,0.618c0,0 5.842,0.73 0.786,4.325l-2.696,10.672l-38.644,0l-2.778,-9.8c-0.001,0 -1.727,-4.396 -0.929,-4.579z" class="st2"/>
  <path fill="#826136" id="svg_9" d="m113.375,416.579l43.631,-0.51l1.684,-2.3l-0.052,-1.565l-45.81,-0.056c0.001,0 -3.557,-1.606 0.547,4.431z" class="st3"/>
  <polygon fill="#91de14" id="svg_10" points="114.323,408.704 115.896,411.457 117.338,411.129 115.438,408.147 " class="st4"/>
  <polygon fill="#91de14" id="svg_11" points="153.06,410.015 158.172,404.772 155.616,411.129 152.339,411.129 " class="st4"/>
  <path fill="#3bb417" id="svg_12" d="m151.355,411.475c0,0 2.097,-12.078 5.047,-13.127c2.949,-1.049 -0.328,0 -0.328,0s-7.8,2.163 -6.948,12.781l2.229,0.346z" class="st5"/>
  <path fill="#3bb417" id="svg_13" d="m147.882,410.802c0,0 -4.916,-9.111 -9.242,-10.552l6.751,10.88l2.491,-0.328z" class="st5"/>
  <polygon fill="#91de14" id="svg_14" points="144.211,410.474 140.148,407.524 142.179,411.954 " class="st4"/>
  <path fill="#91de14" id="svg_15" d="m125.466,410.802c0.197,0 5.112,-5.637 5.112,-5.637l-1.507,5.964l-3.605,-0.327z" class="st4"/>
  <path fill="#3bb417" id="svg_16" d="m129.661,398.938c0,0 -4.127,6.857 -5.243,12.191l-2.556,0c-0.001,0 1.179,-12.387 7.799,-12.191z" class="st5"/>
  <path fill="#3bb417" id="svg_17" d="m121.009,410.146c0,0 -6.355,-9.93 -8.848,-9.897l6.096,11.077l2.753,0l0,-1.18l-0.001,0z" class="st5"/>
  <path fill="#59d331" id="svg_18" d="m137.264,395.989c0,0 -1.966,-8.455 9.111,-9.7c0,0 7.005,-0.004 7.406,-0.786c0,-0.001 -5.244,16.778 -16.517,10.486z" class="st6"/>
  <path fill="#59d331" id="svg_19" d="m133.724,392.122c0.118,-0.171 1.901,-10.487 -14.288,-11.929c0,0 -0.262,7.577 4.981,12.277c0,-0.001 5.375,5.354 9.307,-0.348z" class="st6"/>
  <path fill="#539933" id="svg_20" d="m153.781,385.502c0,0 -16.124,11.077 -16.976,11.077c0,0 -0.983,-8.306 7.406,-9.921l9.57,-1.156z" class="st7"/>
  <path fill="#539933" id="svg_21" d="m132.938,393.301l-14.42,-13.109c0,0.001 3.605,17.894 14.42,13.109z" class="st7"/>
  <path fill="#f39ac0" id="svg_22" d="m139.754,382.028c0,0 1.144,3.867 5.521,0.59c0,0 2.705,1.704 3.95,-2.032c0,0 4.064,-0.852 2.065,-4.391c0,0 2.884,-2.36 -0.721,-4.85c0,0 0.262,-3.703 -3.375,-3.834c0,0 -3.539,-2.72 -4.883,-0.59c0,0 -4.129,-0.426 -4.26,2.36c0,0 -3.9,0.983 -2.622,4.359c0,0 -1.868,3.179 0.983,5.047c0,-0.002 0,4.226 3.342,3.341z" class="st8"/>
  <path id="svg_23" d="m144.867,372.786"/>
  <ellipse fill="#f283b8" id="svg_24" transform="matrix(0.2449,-0.9695,0.9695,0.2449,-250.4367,421.3446) " ry="0.256" rx="2.571" cy="371.452" cx="145.284" class="st9"/>
  <ellipse fill="#f283b8" id="svg_25" transform="matrix(0.3239,-0.9461,0.9461,0.3239,-255.8399,392.9481) " ry="2.571" rx="0.256" cy="375.468" cx="146.999" class="st9"/>
  <ellipse fill="#f283b8" id="svg_26" transform="matrix(0.9987,-0.0507,0.0507,0.9987,-18.9904,7.8034) " ry="2.571" rx="0.256" cy="377.976" cx="144.217" class="st9"/>
  <ellipse fill="#f283b8" id="svg_27" transform="matrix(0.7071,-0.7071,0.7071,0.7071,-222.1596,209.1216) " ry="2.571" rx="0.256" cy="372.731" cx="141.352" class="st9"/>
  <ellipse fill="#f283b8" id="svg_28" transform="matrix(0.7071,-0.7071,0.7071,0.7071,-224.9936,210.0779) " ry="0.256" rx="2.571" cy="376.63" cx="141.09" class="st9"/>
  <circle fill="#ffffff" opacity="0.16" id="svg_29" r="3.522" cy="374.454" cx="144.038" class="st10"/>
  <path id="svg_30" d="m160.543,403.08c-0.199,-0.279 -0.559,-0.379 -0.881,-0.252c-0.207,0.087 -4.803,2.111 -7.278,7.208c1.061,-8.497 6.007,-12.265 6.058,-12.303c0.285,-0.211 0.379,-0.594 0.225,-0.911c-0.154,-0.317 -0.506,-0.485 -0.854,-0.388c-8.396,2.296 -9.579,11.431 -9.701,12.699c-1.595,-2.749 -3.085,-4.898 -4.431,-6.341c-1.559,-1.675 -4.156,-3.556 -6.772,-3.814c-0.33,-0.031 -0.63,0.154 -0.752,0.455c-0.123,0.301 -0.032,0.647 0.222,0.85c0.04,0.033 3.29,2.699 6.11,7.321c-0.773,-0.617 -1.597,-1.189 -2.515,-1.674c-0.299,-0.156 -0.668,-0.09 -0.893,0.164c-0.223,0.254 -0.244,0.629 -0.049,0.907c0.012,0.018 1.128,1.619 2.227,3.767l-4.035,0c-0.149,-0.25 -3.011,-5.208 -2.371,-12.768c0.729,-0.172 1.463,-0.403 2.196,-0.681c1.603,0.86 3.167,1.169 4.589,1.169c3.609,0 6.296,-1.992 6.341,-2.028c4.486,-3.666 6.407,-10.656 6.487,-10.952s-0.033,-0.61 -0.283,-0.789c-0.25,-0.177 -0.584,-0.184 -0.838,-0.009c-0.571,0.387 -2.999,0.63 -4.949,0.824c-1.934,0.194 -3.935,0.393 -5.266,0.766c-3.119,0.876 -5.225,2.401 -6.256,4.533c-0.968,2.001 -0.728,4 -0.451,5.147c-0.461,0.173 -0.92,0.321 -1.377,0.448c0.446,-3.088 1.477,-6.538 3.501,-10.245c0.387,-0.71 0.977,-1.497 1.732,-2.332c0.517,0.557 1.212,0.945 2.006,1.031c0.119,0.012 0.236,0.018 0.352,0.018c0.963,0 1.864,-0.43 2.472,-1.158c0.981,0.558 2.206,0.577 3.21,-0.002c0.952,-0.546 1.542,-1.52 1.614,-2.581c1.12,-0.125 2.122,-0.826 2.597,-1.889c0.449,-1.002 0.352,-2.136 -0.211,-3.036c0.832,-0.759 1.227,-1.915 0.989,-3.055c-0.225,-1.074 -0.971,-1.936 -1.956,-2.332c0.227,-1.104 -0.131,-2.271 -0.993,-3.053c-0.813,-0.737 -1.915,-0.997 -2.956,-0.737c-0.023,-0.058 -0.059,-0.14 -0.07,-0.16c-0.199,-0.38 -0.467,-0.713 -0.797,-0.987c-0.059,-0.05 -0.123,-0.093 -0.283,-0.202c-0.076,-0.054 -0.152,-0.107 -0.244,-0.159c-0.084,-0.045 -0.172,-0.082 -0.36,-0.159c-0.027,-0.012 -0.19,-0.078 -0.219,-0.087c-0.412,-0.129 -0.838,-0.174 -1.268,-0.137c-0.078,0.008 -0.154,0.023 -0.344,0.059c-0.094,0.016 -0.186,0.033 -0.268,0.058c-0.096,0.027 -0.186,0.063 -0.373,0.141c-0.029,0.011 -0.197,0.083 -0.223,0.096c-0.184,0.097 -0.358,0.211 -0.545,0.358c-0.156,0.127 -0.299,0.268 -0.434,0.427c-0.979,-0.554 -2.2,-0.57 -3.203,0.006c-0.952,0.547 -1.542,1.522 -1.614,2.582c-1.119,0.125 -2.12,0.827 -2.596,1.889c-0.45,1.002 -0.352,2.135 0.212,3.035c-0.833,0.759 -1.229,1.915 -0.99,3.055c0.225,1.074 0.97,1.936 1.956,2.333c-0.226,1.102 0.132,2.27 0.995,3.052c0.636,0.577 1.456,0.85 2.276,0.822c-0.739,0.842 -1.347,1.651 -1.754,2.399c-1.478,2.708 -2.458,5.28 -3.085,7.684c-0.031,-0.032 -0.061,-0.064 -0.092,-0.096c1.234,-5.923 -3.468,-9.906 -3.515,-9.941c-4.622,-3.492 -11.869,-3.704 -12.176,-3.712c-0.313,-0.014 -0.586,0.176 -0.699,0.462s-0.038,0.611 0.189,0.817c0.512,0.463 1.322,2.763 1.972,4.612c0.646,1.834 1.313,3.731 1.99,4.934c1.589,2.826 3.569,4.51 5.885,5.008c0.497,0.107 0.978,0.152 1.44,0.152c1.818,0 3.297,-0.7 4.035,-1.127c0.201,0.206 0.399,0.412 0.592,0.617c-0.585,2.964 -0.643,5.627 -0.416,7.914c-0.14,-0.028 -0.287,-0.032 -0.426,0.024c-0.206,0.087 -4.797,2.109 -7.274,7.201c1.062,-8.492 6.004,-12.257 6.057,-12.296c0.284,-0.211 0.379,-0.594 0.224,-0.911c-0.155,-0.319 -0.514,-0.485 -0.853,-0.388c-8.404,2.299 -9.581,11.45 -9.701,12.702c-1.596,-2.751 -3.086,-4.901 -4.432,-6.344c-1.561,-1.675 -4.16,-3.558 -6.774,-3.814c-0.336,-0.031 -0.63,0.154 -0.752,0.455c-0.123,0.301 -0.032,0.647 0.222,0.85c0.04,0.033 3.288,2.698 6.107,7.318c-0.772,-0.615 -1.594,-1.187 -2.51,-1.671c-0.298,-0.156 -0.67,-0.09 -0.894,0.164c-0.224,0.254 -0.245,0.629 -0.05,0.907c0.013,0.018 1.126,1.615 2.227,3.767l-0.07,0c-2.216,0 -4.019,1.485 -4.019,3.31c0,1.111 0.695,2.111 1.799,2.723l2.387,10.631c0.075,0.334 0.373,0.571 0.716,0.571l39.126,0c0.344,0 0.641,-0.238 0.717,-0.571l2.366,-10.535c1.211,-0.596 1.972,-1.643 1.972,-2.819c0,-1.48 -1.192,-2.722 -2.822,-3.144c0.832,-2.711 2.084,-5.055 3.773,-6.938c0.229,-0.255 0.249,-0.634 0.05,-0.914zm-22.342,-11.621c0.844,-1.73 2.634,-2.99 5.325,-3.745c1.206,-0.338 3.142,-0.532 5.016,-0.719c1.729,-0.172 3.079,-0.315 4.068,-0.519c-0.764,2.158 -2.558,6.393 -5.538,8.828c-0.042,0.032 -3.852,2.789 -8.193,1.228c0.947,-0.453 1.872,-0.963 2.766,-1.503c0.363,-0.091 2.658,-0.629 4.52,-0.085c0.395,0.111 0.799,-0.112 0.909,-0.502c0.113,-0.389 -0.111,-0.796 -0.5,-0.909c-0.732,-0.21 -1.497,-0.282 -2.22,-0.286c0.282,-0.201 0.556,-0.399 0.823,-0.597c0.677,-0.154 2.289,-0.446 3.42,-0.029c0.385,0.139 0.803,-0.056 0.942,-0.436c0.141,-0.38 -0.055,-0.802 -0.434,-0.942c-0.55,-0.202 -1.159,-0.278 -1.752,-0.292c1.44,-1.184 2.371,-2.067 2.479,-2.172c0.293,-0.281 0.303,-0.746 0.023,-1.037c-0.285,-0.293 -0.748,-0.301 -1.038,-0.022c-0.027,0.025 -0.951,0.901 -2.406,2.093c0.153,-0.426 0.278,-0.838 0.335,-1.178c0.066,-0.4 -0.205,-0.778 -0.604,-0.845c-0.406,-0.073 -0.776,0.206 -0.846,0.603c-0.143,0.867 -0.988,2.668 -1.302,3.294c-0.276,0.201 -0.562,0.404 -0.853,0.607c0.29,-0.698 0.548,-1.411 0.636,-1.937c0.066,-0.399 -0.205,-0.777 -0.606,-0.843c-0.416,-0.068 -0.778,0.206 -0.844,0.605c-0.146,0.895 -1.053,2.805 -1.498,3.68c-0.98,0.592 -1.999,1.141 -3.031,1.611c-0.195,-0.958 -0.312,-2.485 0.403,-3.951zm9.387,-8.992c-0.703,0.401 -1.581,0.275 -2.147,-0.303c-0.17,-0.172 -0.416,-0.248 -0.653,-0.209c-0.24,0.043 -0.44,0.201 -0.541,0.422c-0.317,0.709 -1.026,1.124 -1.807,1.046c-0.735,-0.079 -1.319,-0.622 -1.501,-1.333l2.498,-5.148c0.295,0.079 0.609,0.107 0.932,0.066c0.2,-0.026 0.369,-0.116 0.548,-0.187l3.522,3.899c0.085,0.705 -0.234,1.393 -0.851,1.747zm4.281,-8.986c0.166,0.788 -0.225,1.588 -0.95,1.949c-0.219,0.109 -0.369,0.316 -0.401,0.557s0.055,0.481 0.234,0.644c0.576,0.521 0.752,1.341 0.438,2.04c-0.299,0.667 -0.998,1.05 -1.701,1.017l-3.425,-3.79c0.292,-0.459 0.459,-1.002 0.383,-1.584c-0.012,-0.091 -0.064,-0.163 -0.085,-0.25l4.116,-1.932c0.692,0.139 1.245,0.654 1.391,1.349zm-5.669,-5.39c0.02,0.251 0.166,0.474 0.389,0.591c0.223,0.119 0.492,0.112 0.707,-0.012c0.674,-0.387 1.507,-0.302 2.075,0.213c0.544,0.493 0.698,1.264 0.439,1.941l-4.208,1.975c-0.334,-0.282 -0.741,-0.447 -1.185,-0.514l-1.454,-4.832c0.008,-0.013 0.123,-0.182 0.127,-0.189c0.074,-0.088 0.156,-0.17 0.258,-0.252c0.088,-0.072 0.184,-0.134 0.287,-0.187l0.223,-0.089l0.203,-0.059c0.002,-0.001 0.231,-0.045 0.236,-0.046c0.234,-0.019 0.467,0.003 0.746,0.098c0.012,0.005 0.162,0.069 0.174,0.073l0.186,0.102l0.193,0.133c0.18,0.15 0.332,0.338 0.457,0.589c0.002,0.009 0.104,0.26 0.109,0.27m-10.262,3.489c0.329,-0.732 1.11,-1.146 1.916,-1.017c0.238,0.04 0.481,-0.041 0.649,-0.216c0.17,-0.174 0.24,-0.421 0.19,-0.659c-0.16,-0.759 0.18,-1.525 0.844,-1.906c0.659,-0.378 1.473,-0.271 2.037,0.222l1.414,4.701c-0.591,0.311 -1.033,0.841 -1.208,1.482l-5.471,-0.948c-0.08,-0.014 -0.159,-0.006 -0.235,0.006c-0.316,-0.494 -0.383,-1.113 -0.136,-1.665zm1.82,9.788c-0.597,-0.54 -0.751,-1.418 -0.377,-2.136c0.113,-0.216 0.111,-0.472 -0.002,-0.686c-0.115,-0.214 -0.329,-0.357 -0.569,-0.384c-0.772,-0.083 -1.395,-0.642 -1.552,-1.392c-0.166,-0.788 0.226,-1.588 0.951,-1.949c0.043,-0.021 0.069,-0.062 0.107,-0.091l5.593,0.969c0.089,0.22 0.201,0.416 0.346,0.596l-2.598,5.353c-0.638,0.284 -1.378,0.193 -1.899,-0.28zm-9.687,12.64c-1.887,-0.406 -3.54,-1.85 -4.914,-4.291c-0.614,-1.093 -1.261,-2.928 -1.884,-4.703c-0.578,-1.639 -1.036,-2.917 -1.469,-3.83c2.281,0.233 6.824,0.978 9.89,3.294c0.039,0.032 3.534,3.009 3.138,7.513c-0.592,-0.575 -1.194,-1.147 -1.799,-1.706c-0.26,-0.544 -1.292,-2.844 -1.145,-4.932c0.029,-0.405 -0.277,-0.755 -0.681,-0.783c-0.41,-0.028 -0.755,0.277 -0.783,0.681c-0.072,1.028 0.095,2.061 0.328,2.98c-0.309,-0.271 -0.611,-0.536 -0.909,-0.793c-0.301,-0.629 -1.099,-2.46 -0.895,-3.897c0.056,-0.401 -0.223,-0.772 -0.625,-0.83c-0.402,-0.058 -0.772,0.224 -0.83,0.625c-0.104,0.733 -0.009,1.509 0.153,2.235c-1.643,-1.371 -2.771,-2.26 -2.8,-2.282c-0.317,-0.249 -0.78,-0.196 -1.03,0.125c-0.25,0.319 -0.195,0.78 0.125,1.03c0.028,0.022 1.17,0.922 2.824,2.303c-0.604,-0.09 -1.198,-0.152 -1.655,-0.134c-0.406,0.019 -0.718,0.364 -0.698,0.768c0.018,0.406 0.397,0.731 0.768,0.698c0.989,-0.033 3.12,0.443 3.908,0.646c0.253,0.22 0.512,0.448 0.773,0.677c-0.857,-0.159 -1.731,-0.281 -2.342,-0.257c-0.406,0.019 -0.718,0.364 -0.698,0.768c0.018,0.406 0.397,0.708 0.768,0.698c1.082,-0.037 3.484,0.53 4.502,0.801c0.698,0.645 1.393,1.307 2.067,1.97c-0.853,0.433 -2.378,0.999 -4.087,0.626zm21.526,15.62c0.018,-0.322 0.473,-6.755 5.368,-10.09c-1.678,2.269 -3.612,5.999 -4.096,11.423l-1.141,0c-0.158,-0.759 -0.157,-1.133 -0.131,-1.333zm-6.952,-5.642c1.412,1.515 3.011,3.887 4.745,6.976l-1.572,0c-0.008,-0.027 -0.006,-0.055 -0.017,-0.082c-1.774,-4.117 -4.205,-7.236 -6.01,-9.19c1.111,0.649 2.11,1.499 2.854,2.296zm-0.576,5.3c0.587,0.511 1.103,1.08 1.583,1.675l-0.731,0c-0.284,-0.586 -0.573,-1.168 -0.852,-1.675zm-8.473,-4.813c0.495,3.122 1.44,5.371 2,6.489l-5.496,0c0.793,-2.511 1.959,-4.694 3.496,-6.489zm-3.182,1.979c-0.769,1.368 -1.373,2.886 -1.851,4.51l-1.587,0c0.938,-1.967 2.229,-3.465 3.438,-4.51zm-7.527,3.176c0.004,-0.08 0.453,-6.661 5.346,-10.059c-1.675,2.271 -3.592,5.992 -4.076,11.392l-1.138,0c-0.159,-0.757 -0.159,-1.131 -0.132,-1.333zm-6.952,-5.642c1.411,1.514 3.009,3.888 4.742,6.976l-1.571,0c-0.008,-0.027 -0.006,-0.055 -0.017,-0.082c-1.774,-4.117 -4.204,-7.234 -6.007,-9.188c1.109,0.647 2.108,1.497 2.853,2.294zm-0.576,5.3c0.588,0.511 1.103,1.08 1.583,1.675l-0.731,0c-0.284,-0.586 -0.573,-1.168 -0.852,-1.675zm42.754,4.986c0,0.63 -0.474,1.216 -1.228,1.557c-0.3,0.039 -0.555,0.251 -0.625,0.559l-2.323,10.344l-37.951,0l-1.965,-8.75l-0.358,-1.594c-0.007,-0.029 -0.025,-0.051 -0.035,-0.078c-0.013,-0.043 -0.033,-0.081 -0.054,-0.121c-0.019,-0.033 -0.037,-0.066 -0.061,-0.095c-0.045,-0.06 -0.099,-0.109 -0.162,-0.153c-0.006,-0.004 -0.011,-0.008 -0.017,-0.012c-0.036,-0.024 -0.065,-0.056 -0.107,-0.074c-0.779,-0.338 -1.263,-0.944 -1.263,-1.581c0,-1 1.167,-1.843 2.55,-1.843l41.048,0c1.384,-0.003 2.551,0.841 2.551,1.841zm-2.838,-3.31l-1.588,0c0.938,-1.967 2.23,-3.465 3.439,-4.51c-0.768,1.367 -1.372,2.886 -1.851,4.51z"/>
  <path fill="#a3875e" id="svg_31" d="m111.953,412.711l1.184,-0.686l0.95,-0.55l29.208,0l12.919,0.618c0,0 5.842,0.73 0.786,4.325l-2.696,10.672l-38.644,0l-2.778,-9.8c-0.001,0 -1.727,-4.396 -0.929,-4.579z" class="st2"/>
  <path fill="#826136" id="svg_32" d="m113.375,416.579l43.631,-0.51l1.684,-2.3l-0.052,-1.565l-45.81,-0.056c0.001,0 -3.557,-1.606 0.547,4.431z" class="st3"/>
  <polygon fill="#91de14" id="svg_33" points="114.323,408.704 115.896,411.457 117.338,411.129 115.438,408.147 " class="st4"/>
  <polygon fill="#91de14" id="svg_34" points="153.06,410.015 158.172,404.772 155.616,411.129 152.339,411.129 " class="st4"/>
  <path fill="#3bb417" id="svg_35" d="m151.355,411.475c0,0 2.097,-12.078 5.047,-13.127c2.949,-1.049 -0.328,0 -0.328,0s-7.8,2.163 -6.948,12.781l2.229,0.346z" class="st5"/>
  <path fill="#3bb417" id="svg_36" d="m147.882,410.802c0,0 -4.916,-9.111 -9.242,-10.552l6.751,10.88l2.491,-0.328z" class="st5"/>
  <polygon fill="#91de14" id="svg_37" points="144.211,410.474 140.148,407.524 142.179,411.954 " class="st4"/>
  <path fill="#91de14" id="svg_38" d="m125.466,410.802c0.197,0 5.112,-5.637 5.112,-5.637l-1.507,5.964l-3.605,-0.327z" class="st4"/>
  <path fill="#3bb417" id="svg_39" d="m129.661,398.938c0,0 -4.127,6.857 -5.243,12.191l-2.556,0c-0.001,0 1.179,-12.387 7.799,-12.191z" class="st5"/>
  <path fill="#3bb417" id="svg_40" d="m121.009,410.146c0,0 -6.355,-9.93 -8.848,-9.897l6.096,11.077l2.753,0l0,-1.18l-0.001,0z" class="st5"/>
  <path fill="#59d331" id="svg_41" d="m137.264,395.989c0,0 -1.966,-8.455 9.111,-9.7c0,0 7.005,-0.004 7.406,-0.786c0,-0.001 -5.244,16.778 -16.517,10.486z" class="st6"/>
  <path fill="#59d331" id="svg_42" d="m133.724,392.122c0.118,-0.171 1.901,-10.487 -14.288,-11.929c0,0 -0.262,7.577 4.981,12.277c0,-0.001 5.375,5.354 9.307,-0.348z" class="st6"/>
  <path fill="#539933" id="svg_43" d="m153.781,385.502c0,0 -16.124,11.077 -16.976,11.077c0,0 -0.983,-8.306 7.406,-9.921l9.57,-1.156z" class="st7"/>
  <path fill="#539933" id="svg_44" d="m132.938,393.301l-14.42,-13.109c0,0.001 3.605,17.894 14.42,13.109z" class="st7"/>
  <path fill="#f39ac0" id="svg_45" d="m139.754,382.028c0,0 1.144,3.867 5.521,0.59c0,0 2.705,1.704 3.95,-2.032c0,0 4.064,-0.852 2.065,-4.391c0,0 2.884,-2.36 -0.721,-4.85c0,0 0.262,-3.703 -3.375,-3.834c0,0 -3.539,-2.72 -4.883,-0.59c0,0 -4.129,-0.426 -4.26,2.36c0,0 -3.9,0.983 -2.622,4.359c0,0 -1.868,3.179 0.983,5.047c0,-0.002 0,4.226 3.342,3.341z" class="st8"/>
  <path id="svg_46" d="m144.867,372.786"/>
  <ellipse fill="#f283b8" id="svg_47" transform="matrix(0.2449,-0.9695,0.9695,0.2449,-250.4367,421.3446) " ry="0.256" rx="2.571" cy="371.452" cx="145.284" class="st9"/>
  <ellipse fill="#f283b8" id="svg_48" transform="matrix(0.3239,-0.9461,0.9461,0.3239,-255.8399,392.9481) " ry="2.571" rx="0.256" cy="375.468" cx="146.999" class="st9"/>
  <ellipse fill="#f283b8" id="svg_49" transform="matrix(0.9987,-0.0507,0.0507,0.9987,-18.9904,7.8034) " ry="2.571" rx="0.256" cy="377.976" cx="144.217" class="st9"/>
  <ellipse fill="#f283b8" id="svg_50" transform="matrix(0.7071,-0.7071,0.7071,0.7071,-222.1596,209.1216) " ry="2.571" rx="0.256" cy="372.731" cx="141.352" class="st9"/>
  <ellipse fill="#f283b8" id="svg_51" transform="matrix(0.7071,-0.7071,0.7071,0.7071,-224.9936,210.0779) " ry="0.256" rx="2.571" cy="376.63" cx="141.09" class="st9"/>
  <circle fill="#ffffff" opacity="0.16" id="svg_52" r="3.522" cy="374.454" cx="144.038" class="st10"/>
  <path id="svg_53" d="m160.543,403.08c-0.199,-0.279 -0.559,-0.379 -0.881,-0.252c-0.207,0.087 -4.803,2.111 -7.278,7.208c1.061,-8.497 6.007,-12.265 6.058,-12.303c0.285,-0.211 0.379,-0.594 0.225,-0.911c-0.154,-0.317 -0.506,-0.485 -0.854,-0.388c-8.396,2.296 -9.579,11.431 -9.701,12.699c-1.595,-2.749 -3.085,-4.898 -4.431,-6.341c-1.559,-1.675 -4.156,-3.556 -6.772,-3.814c-0.33,-0.031 -0.63,0.154 -0.752,0.455c-0.123,0.301 -0.032,0.647 0.222,0.85c0.04,0.033 3.29,2.699 6.11,7.321c-0.773,-0.617 -1.597,-1.189 -2.515,-1.674c-0.299,-0.156 -0.668,-0.09 -0.893,0.164c-0.223,0.254 -0.244,0.629 -0.049,0.907c0.012,0.018 1.128,1.619 2.227,3.767l-4.035,0c-0.149,-0.25 -3.011,-5.208 -2.371,-12.768c0.729,-0.172 1.463,-0.403 2.196,-0.681c1.603,0.86 3.167,1.169 4.589,1.169c3.609,0 6.296,-1.992 6.341,-2.028c4.486,-3.666 6.407,-10.656 6.487,-10.952s-0.033,-0.61 -0.283,-0.789c-0.25,-0.177 -0.584,-0.184 -0.838,-0.009c-0.571,0.387 -2.999,0.63 -4.949,0.824c-1.934,0.194 -3.935,0.393 -5.266,0.766c-3.119,0.876 -5.225,2.401 -6.256,4.533c-0.968,2.001 -0.728,4 -0.451,5.147c-0.461,0.173 -0.92,0.321 -1.377,0.448c0.446,-3.088 1.477,-6.538 3.501,-10.245c0.387,-0.71 0.977,-1.497 1.732,-2.332c0.517,0.557 1.212,0.945 2.006,1.031c0.119,0.012 0.236,0.018 0.352,0.018c0.963,0 1.864,-0.43 2.472,-1.158c0.981,0.558 2.206,0.577 3.21,-0.002c0.952,-0.546 1.542,-1.52 1.614,-2.581c1.12,-0.125 2.122,-0.826 2.597,-1.889c0.449,-1.002 0.352,-2.136 -0.211,-3.036c0.832,-0.759 1.227,-1.915 0.989,-3.055c-0.225,-1.074 -0.971,-1.936 -1.956,-2.332c0.227,-1.104 -0.131,-2.271 -0.993,-3.053c-0.813,-0.737 -1.915,-0.997 -2.956,-0.737c-0.023,-0.058 -0.059,-0.14 -0.07,-0.16c-0.199,-0.38 -0.467,-0.713 -0.797,-0.987c-0.059,-0.05 -0.123,-0.093 -0.283,-0.202c-0.076,-0.054 -0.152,-0.107 -0.244,-0.159c-0.084,-0.045 -0.172,-0.082 -0.36,-0.159c-0.027,-0.012 -0.19,-0.078 -0.219,-0.087c-0.412,-0.129 -0.838,-0.174 -1.268,-0.137c-0.078,0.008 -0.154,0.023 -0.344,0.059c-0.094,0.016 -0.186,0.033 -0.268,0.058c-0.096,0.027 -0.186,0.063 -0.373,0.141c-0.029,0.011 -0.197,0.083 -0.223,0.096c-0.184,0.097 -0.358,0.211 -0.545,0.358c-0.156,0.127 -0.299,0.268 -0.434,0.427c-0.979,-0.554 -2.2,-0.57 -3.203,0.006c-0.952,0.547 -1.542,1.522 -1.614,2.582c-1.119,0.125 -2.12,0.827 -2.596,1.889c-0.45,1.002 -0.352,2.135 0.212,3.035c-0.833,0.759 -1.229,1.915 -0.99,3.055c0.225,1.074 0.97,1.936 1.956,2.333c-0.226,1.102 0.132,2.27 0.995,3.052c0.636,0.577 1.456,0.85 2.276,0.822c-0.739,0.842 -1.347,1.651 -1.754,2.399c-1.478,2.708 -2.458,5.28 -3.085,7.684c-0.031,-0.032 -0.061,-0.064 -0.092,-0.096c1.234,-5.923 -3.468,-9.906 -3.515,-9.941c-4.622,-3.492 -11.869,-3.704 -12.176,-3.712c-0.313,-0.014 -0.586,0.176 -0.699,0.462s-0.038,0.611 0.189,0.817c0.512,0.463 1.322,2.763 1.972,4.612c0.646,1.834 1.313,3.731 1.99,4.934c1.589,2.826 3.569,4.51 5.885,5.008c0.497,0.107 0.978,0.152 1.44,0.152c1.818,0 3.297,-0.7 4.035,-1.127c0.201,0.206 0.399,0.412 0.592,0.617c-0.585,2.964 -0.643,5.627 -0.416,7.914c-0.14,-0.028 -0.287,-0.032 -0.426,0.024c-0.206,0.087 -4.797,2.109 -7.274,7.201c1.062,-8.492 6.004,-12.257 6.057,-12.296c0.284,-0.211 0.379,-0.594 0.224,-0.911c-0.155,-0.319 -0.514,-0.485 -0.853,-0.388c-8.404,2.299 -9.581,11.45 -9.701,12.702c-1.596,-2.751 -3.086,-4.901 -4.432,-6.344c-1.561,-1.675 -4.16,-3.558 -6.774,-3.814c-0.336,-0.031 -0.63,0.154 -0.752,0.455c-0.123,0.301 -0.032,0.647 0.222,0.85c0.04,0.033 3.288,2.698 6.107,7.318c-0.772,-0.615 -1.594,-1.187 -2.51,-1.671c-0.298,-0.156 -0.67,-0.09 -0.894,0.164c-0.224,0.254 -0.245,0.629 -0.05,0.907c0.013,0.018 1.126,1.615 2.227,3.767l-0.07,0c-2.216,0 -4.019,1.485 -4.019,3.31c0,1.111 0.695,2.111 1.799,2.723l2.387,10.631c0.075,0.334 0.373,0.571 0.716,0.571l39.126,0c0.344,0 0.641,-0.238 0.717,-0.571l2.366,-10.535c1.211,-0.596 1.972,-1.643 1.972,-2.819c0,-1.48 -1.192,-2.722 -2.822,-3.144c0.832,-2.711 2.084,-5.055 3.773,-6.938c0.229,-0.255 0.249,-0.634 0.05,-0.914zm-22.342,-11.621c0.844,-1.73 2.634,-2.99 5.325,-3.745c1.206,-0.338 3.142,-0.532 5.016,-0.719c1.729,-0.172 3.079,-0.315 4.068,-0.519c-0.764,2.158 -2.558,6.393 -5.538,8.828c-0.042,0.032 -3.852,2.789 -8.193,1.228c0.947,-0.453 1.872,-0.963 2.766,-1.503c0.363,-0.091 2.658,-0.629 4.52,-0.085c0.395,0.111 0.799,-0.112 0.909,-0.502c0.113,-0.389 -0.111,-0.796 -0.5,-0.909c-0.732,-0.21 -1.497,-0.282 -2.22,-0.286c0.282,-0.201 0.556,-0.399 0.823,-0.597c0.677,-0.154 2.289,-0.446 3.42,-0.029c0.385,0.139 0.803,-0.056 0.942,-0.436c0.141,-0.38 -0.055,-0.802 -0.434,-0.942c-0.55,-0.202 -1.159,-0.278 -1.752,-0.292c1.44,-1.184 2.371,-2.067 2.479,-2.172c0.293,-0.281 0.303,-0.746 0.023,-1.037c-0.285,-0.293 -0.748,-0.301 -1.038,-0.022c-0.027,0.025 -0.951,0.901 -2.406,2.093c0.153,-0.426 0.278,-0.838 0.335,-1.178c0.066,-0.4 -0.205,-0.778 -0.604,-0.845c-0.406,-0.073 -0.776,0.206 -0.846,0.603c-0.143,0.867 -0.988,2.668 -1.302,3.294c-0.276,0.201 -0.562,0.404 -0.853,0.607c0.29,-0.698 0.548,-1.411 0.636,-1.937c0.066,-0.399 -0.205,-0.777 -0.606,-0.843c-0.416,-0.068 -0.778,0.206 -0.844,0.605c-0.146,0.895 -1.053,2.805 -1.498,3.68c-0.98,0.592 -1.999,1.141 -3.031,1.611c-0.195,-0.958 -0.312,-2.485 0.403,-3.951zm9.387,-8.992c-0.703,0.401 -1.581,0.275 -2.147,-0.303c-0.17,-0.172 -0.416,-0.248 -0.653,-0.209c-0.24,0.043 -0.44,0.201 -0.541,0.422c-0.317,0.709 -1.026,1.124 -1.807,1.046c-0.735,-0.079 -1.319,-0.622 -1.501,-1.333l2.498,-5.148c0.295,0.079 0.609,0.107 0.932,0.066c0.2,-0.026 0.369,-0.116 0.548,-0.187l3.522,3.899c0.085,0.705 -0.234,1.393 -0.851,1.747zm4.281,-8.986c0.166,0.788 -0.225,1.588 -0.95,1.949c-0.219,0.109 -0.369,0.316 -0.401,0.557s0.055,0.481 0.234,0.644c0.576,0.521 0.752,1.341 0.438,2.04c-0.299,0.667 -0.998,1.05 -1.701,1.017l-3.425,-3.79c0.292,-0.459 0.459,-1.002 0.383,-1.584c-0.012,-0.091 -0.064,-0.163 -0.085,-0.25l4.116,-1.932c0.692,0.139 1.245,0.654 1.391,1.349zm-5.669,-5.39c0.02,0.251 0.166,0.474 0.389,0.591c0.223,0.119 0.492,0.112 0.707,-0.012c0.674,-0.387 1.507,-0.302 2.075,0.213c0.544,0.493 0.698,1.264 0.439,1.941l-4.208,1.975c-0.334,-0.282 -0.741,-0.447 -1.185,-0.514l-1.454,-4.832c0.008,-0.013 0.123,-0.182 0.127,-0.189c0.074,-0.088 0.156,-0.17 0.258,-0.252c0.088,-0.072 0.184,-0.134 0.287,-0.187l0.223,-0.089l0.203,-0.059c0.002,-0.001 0.231,-0.045 0.236,-0.046c0.234,-0.019 0.467,0.003 0.746,0.098c0.012,0.005 0.162,0.069 0.174,0.073l0.186,0.102l0.193,0.133c0.18,0.15 0.332,0.338 0.457,0.589c0.002,0.009 0.104,0.26 0.109,0.27m-10.262,3.489c0.329,-0.732 1.11,-1.146 1.916,-1.017c0.238,0.04 0.481,-0.041 0.649,-0.216c0.17,-0.174 0.24,-0.421 0.19,-0.659c-0.16,-0.759 0.18,-1.525 0.844,-1.906c0.659,-0.378 1.473,-0.271 2.037,0.222l1.414,4.701c-0.591,0.311 -1.033,0.841 -1.208,1.482l-5.471,-0.948c-0.08,-0.014 -0.159,-0.006 -0.235,0.006c-0.316,-0.494 -0.383,-1.113 -0.136,-1.665zm1.82,9.788c-0.597,-0.54 -0.751,-1.418 -0.377,-2.136c0.113,-0.216 0.111,-0.472 -0.002,-0.686c-0.115,-0.214 -0.329,-0.357 -0.569,-0.384c-0.772,-0.083 -1.395,-0.642 -1.552,-1.392c-0.166,-0.788 0.226,-1.588 0.951,-1.949c0.043,-0.021 0.069,-0.062 0.107,-0.091l5.593,0.969c0.089,0.22 0.201,0.416 0.346,0.596l-2.598,5.353c-0.638,0.284 -1.378,0.193 -1.899,-0.28zm-9.687,12.64c-1.887,-0.406 -3.54,-1.85 -4.914,-4.291c-0.614,-1.093 -1.261,-2.928 -1.884,-4.703c-0.578,-1.639 -1.036,-2.917 -1.469,-3.83c2.281,0.233 6.824,0.978 9.89,3.294c0.039,0.032 3.534,3.009 3.138,7.513c-0.592,-0.575 -1.194,-1.147 -1.799,-1.706c-0.26,-0.544 -1.292,-2.844 -1.145,-4.932c0.029,-0.405 -0.277,-0.755 -0.681,-0.783c-0.41,-0.028 -0.755,0.277 -0.783,0.681c-0.072,1.028 0.095,2.061 0.328,2.98c-0.309,-0.271 -0.611,-0.536 -0.909,-0.793c-0.301,-0.629 -1.099,-2.46 -0.895,-3.897c0.056,-0.401 -0.223,-0.772 -0.625,-0.83c-0.402,-0.058 -0.772,0.224 -0.83,0.625c-0.104,0.733 -0.009,1.509 0.153,2.235c-1.643,-1.371 -2.771,-2.26 -2.8,-2.282c-0.317,-0.249 -0.78,-0.196 -1.03,0.125c-0.25,0.319 -0.195,0.78 0.125,1.03c0.028,0.022 1.17,0.922 2.824,2.303c-0.604,-0.09 -1.198,-0.152 -1.655,-0.134c-0.406,0.019 -0.718,0.364 -0.698,0.768c0.018,0.406 0.397,0.731 0.768,0.698c0.989,-0.033 3.12,0.443 3.908,0.646c0.253,0.22 0.512,0.448 0.773,0.677c-0.857,-0.159 -1.731,-0.281 -2.342,-0.257c-0.406,0.019 -0.718,0.364 -0.698,0.768c0.018,0.406 0.397,0.708 0.768,0.698c1.082,-0.037 3.484,0.53 4.502,0.801c0.698,0.645 1.393,1.307 2.067,1.97c-0.853,0.433 -2.378,0.999 -4.087,0.626zm21.526,15.62c0.018,-0.322 0.473,-6.755 5.368,-10.09c-1.678,2.269 -3.612,5.999 -4.096,11.423l-1.141,0c-0.158,-0.759 -0.157,-1.133 -0.131,-1.333zm-6.952,-5.642c1.412,1.515 3.011,3.887 4.745,6.976l-1.572,0c-0.008,-0.027 -0.006,-0.055 -0.017,-0.082c-1.774,-4.117 -4.205,-7.236 -6.01,-9.19c1.111,0.649 2.11,1.499 2.854,2.296zm-0.576,5.3c0.587,0.511 1.103,1.08 1.583,1.675l-0.731,0c-0.284,-0.586 -0.573,-1.168 -0.852,-1.675zm-8.473,-4.813c0.495,3.122 1.44,5.371 2,6.489l-5.496,0c0.793,-2.511 1.959,-4.694 3.496,-6.489zm-3.182,1.979c-0.769,1.368 -1.373,2.886 -1.851,4.51l-1.587,0c0.938,-1.967 2.229,-3.465 3.438,-4.51zm-7.527,3.176c0.004,-0.08 0.453,-6.661 5.346,-10.059c-1.675,2.271 -3.592,5.992 -4.076,11.392l-1.138,0c-0.159,-0.757 -0.159,-1.131 -0.132,-1.333zm-6.952,-5.642c1.411,1.514 3.009,3.888 4.742,6.976l-1.571,0c-0.008,-0.027 -0.006,-0.055 -0.017,-0.082c-1.774,-4.117 -4.204,-7.234 -6.007,-9.188c1.109,0.647 2.108,1.497 2.853,2.294zm-0.576,5.3c0.588,0.511 1.103,1.08 1.583,1.675l-0.731,0c-0.284,-0.586 -0.573,-1.168 -0.852,-1.675zm42.754,4.986c0,0.63 -0.474,1.216 -1.228,1.557c-0.3,0.039 -0.555,0.251 -0.625,0.559l-2.323,10.344l-37.951,0l-1.965,-8.75l-0.358,-1.594c-0.007,-0.029 -0.025,-0.051 -0.035,-0.078c-0.013,-0.043 -0.033,-0.081 -0.054,-0.121c-0.019,-0.033 -0.037,-0.066 -0.061,-0.095c-0.045,-0.06 -0.099,-0.109 -0.162,-0.153c-0.006,-0.004 -0.011,-0.008 -0.017,-0.012c-0.036,-0.024 -0.065,-0.056 -0.107,-0.074c-0.779,-0.338 -1.263,-0.944 -1.263,-1.581c0,-1 1.167,-1.843 2.55,-1.843l41.048,0c1.384,-0.003 2.551,0.841 2.551,1.841zm-2.838,-3.31l-1.588,0c0.938,-1.967 2.23,-3.465 3.439,-4.51c-0.768,1.367 -1.372,2.886 -1.851,4.51z"/>
  <path canvas-opacity="1" stroke="#bb7343" stroke-opacity="0" fill="#bb7343" id="svg_67" d="m29.603149,22.310667c-0.111,-0.159 -0.316,-0.217 -0.494,-0.137c-1.904,0.853 -3.059,2.325 -3.759,3.781c0.794,-6.324 3.03,-7.694 3.053,-7.708c0.167,-0.09 0.247,-0.284 0.194,-0.465c-0.054,-0.181 -0.193,-0.314 -0.415,-0.287c-0.123,0.009 -2.759,0.29 -4.838,6.09c-1.597,-3.631 -4.483,-3.701 -4.616,-3.702c-0.19,-0.011 -0.339,0.118 -0.388,0.292c-0.05,0.173 0.023,0.358 0.176,0.452c0.004,0.002 0.058,0.037 0.147,0.102c-0.886,0.441 -2.144,1.158 -2.907,2.889c-2.354,-5.732 -5.012,-5.889 -5.136,-5.892c-0.209,-0.012 -0.351,0.122 -0.397,0.303c-0.047,0.181 0.041,0.372 0.207,0.457c0.02,0.01 1.213,0.68 2.289,3.381c-0.645,0.287 -4.379,2.216 -4.609,8.127l-0.225,-0.001c0.035,-0.939 0.024,-1.636 -0.018,-2.206c0,-0.004 0.002,-0.006 0.002,-0.01c0.133,-5.577 3.273,-7.487 3.407,-7.566c0.16,-0.094 0.235,-0.285 0.182,-0.462c-0.053,-0.177 -0.246,-0.301 -0.405,-0.286c-0.133,0.007 -3.013,0.214 -4.437,3.917c-2.35,-5.696 -4.997,-5.853 -5.12,-5.856c-0.212,-0.008 -0.351,0.123 -0.398,0.304c-0.046,0.181 0.041,0.372 0.207,0.458c0.028,0.014 2.327,1.278 3.419,7.557c-0.768,-1.421 -1.992,-2.836 -3.935,-3.599c-0.178,-0.071 -0.384,-0.003 -0.487,0.161c-0.103,0.164 -0.073,0.377 0.069,0.508c0.029,0.027 2.938,2.754 2.82,7.462c-0.003,0.108 0.038,0.213 0.114,0.29c0.075,0.077 0.178,0.121 0.287,0.121l6.748,0.016c0.016,0.002 0.03,0.008 0.047,0.008c0.007,0 0.015,-0.001 0.023,-0.002c0.008,-0.001 0.014,-0.005 0.022,-0.006l2.278,0.005c0.001,0 0.001,0 0.002,0c0.007,0 0.013,0.001 0.02,0.001c0.001,0 0.002,-0.001 0.004,-0.001l4.875,0.011c0.001,0 0.002,0.001 0.002,0.001c0.006,0 0.012,0.001 0.017,0.001c0.002,0 0.003,-0.001 0.005,-0.001l1.999,0.005c0.002,0 0.003,0.001 0.005,0.001c0.004,0 0.008,0 0.012,-0.001l7.042,0.016c0.004,0.001 0.008,0.001 0.011,0.001c0.006,0 0.013,-0.001 0.02,-0.001c0.019,-0.001 0.035,-0.011 0.054,-0.015c0.031,-0.007 0.062,-0.012 0.09,-0.025c0.021,-0.01 0.038,-0.026 0.057,-0.039c0.023,-0.016 0.046,-0.03 0.065,-0.051c0.016,-0.018 0.026,-0.039 0.039,-0.059c0.015,-0.023 0.03,-0.044 0.04,-0.07c0.009,-0.024 0.011,-0.05 0.015,-0.076c0.004,-0.022 0.013,-0.041 0.013,-0.064c0,-0.005 -0.003,-0.009 -0.003,-0.014c0,-0.006 0.003,-0.011 0.002,-0.016c-0.339,-4.679 2.436,-7.559 2.465,-7.588c0.133,-0.138 0.151,-0.353 0.042,-0.512zm-20.364,-1.273c-0.727,0.92 -1.504,2.313 -1.903,4.288c-0.088,-0.268 -0.178,-0.509 -0.266,-0.759c0.502,-1.87 1.367,-2.932 2.169,-3.529zm-5.241,8.947c-0.023,-2.609 -0.89,-4.608 -1.699,-5.909c2.299,1.971 2.801,5.184 2.887,5.912l-1.188,-0.003zm3.083,0.007l-1.084,-0.003c-0.32,-5.338 -1.396,-8.44 -2.395,-10.21c0.921,1.046 2.016,2.846 3.018,5.935c0.334,1.029 0.558,1.721 0.461,4.278zm17.199,0.041l-1.163,-0.003c-0.19,-2.264 -0.008,-2.927 0.245,-3.806l0.109,-0.384c0.85,-3.112 1.857,-4.944 2.726,-6.021c-0.911,1.796 -1.835,4.922 -1.917,10.214zm-7.281,-2.135c0.1,-3.384 1.304,-5.421 2.352,-6.565c0.36,0.361 0.794,0.868 1.217,1.548c-1.493,1.172 -3.145,3.33 -3.321,7.135l-0.234,-0.001c0.033,-0.903 0.026,-1.586 -0.014,-2.117zm3.541,-3.929c-0.973,1.813 -1.425,3.883 -1.328,6.052l-1.161,-0.003c0.149,-3.034 1.299,-4.915 2.489,-6.049zm0.747,0.31c0.456,1.072 0.823,2.403 0.94,4.045c0.001,0.014 0.008,0.025 0.01,0.039c-0.003,0.45 0.02,0.995 0.074,1.666l-2.297,-0.005c-0.098,-2.067 0.337,-4.033 1.273,-5.745zm1.659,0.513c-0.084,0.275 -0.169,0.541 -0.25,0.837l-0.05,0.177c-0.541,-2.198 -1.505,-3.685 -2.316,-4.613c0.896,0.512 1.957,1.542 2.616,3.599zm-5.314,-2.45c-0.483,0.839 -0.909,1.888 -1.171,3.185c-0.087,-0.266 -0.176,-0.507 -0.265,-0.755c0.32,-1.172 0.853,-1.916 1.436,-2.43zm-1.913,3.497l0.065,0.198c0.191,0.582 0.341,1.056 0.409,1.896c0,0.009 -0.002,0.017 -0.002,0.027c0,0.019 0.007,0.035 0.009,0.052c0.036,0.5 0.04,1.146 0.009,2.001l-1.104,-0.003c-0.336,-5.246 -1.401,-8.311 -2.394,-10.055c0.921,1.035 2.014,2.816 3.008,5.884zm-4.353,0.026c0.493,1.031 0.929,2.371 0.949,4.139l-1.551,-0.004c-0.07,-1.593 0.205,-2.991 0.602,-4.135zm1.351,1.315c0.825,1.179 1.283,2.265 1.487,2.828l-1.088,-0.003c-0.012,-1.077 -0.168,-2.018 -0.399,-2.825zm1.399,0.711c-0.519,-0.932 -1.28,-2.023 -2.342,-3.039c0.471,-1.03 0.981,-1.757 1.261,-2.115c0.434,1.307 0.827,2.981 1.081,5.154zm-2.705,-4.142c-0.763,1.398 -1.561,3.55 -1.448,6.249l-1.048,-0.002c0.135,-3.246 1.389,-5.178 2.496,-6.247zm14.869,6.288l-1.19,-0.003c0.068,-0.855 0.458,-3.948 2.6,-5.963c-0.745,1.334 -1.504,3.37 -1.41,5.966z"/>
 </g>
</svg>