<svg width="654" height="325" viewBox="0 0 654 325" fill="none" xmlns="http://www.w3.org/2000/svg">
<path d="M129.464 242.264C128.632 240.92 127.448 239.896 125.912 239.192C124.376 238.424 122.52 238.04 120.344 238.04C116.248 238.04 113.08 239.384 110.84 242.072C108.6 244.696 107.48 248.312 107.48 252.92C107.48 258.232 108.728 262.2 111.224 264.824C113.72 267.448 117.56 268.76 122.744 268.76C127.672 268.76 131.64 266.776 134.648 262.808H117.656V247.736H152.312V269.048C149.368 274.104 145.304 278.456 140.12 282.104C134.936 285.688 128.376 287.48 120.44 287.48C113.4 287.48 107.256 286.04 102.008 283.16C96.824 280.216 92.824 276.12 90.008 270.872C87.256 265.624 85.88 259.64 85.88 252.92C85.88 246.2 87.256 240.216 90.008 234.968C92.824 229.72 96.824 225.656 102.008 222.776C107.192 219.832 113.272 218.36 120.248 218.36C129.144 218.36 136.376 220.504 141.944 224.792C147.576 229.08 150.904 234.904 151.928 242.264H129.464ZM219.892 276.728H197.236L193.876 287H171.507L196.372 219.032H220.948L245.716 287H223.252L219.892 276.728ZM214.708 260.696L208.564 241.784L202.42 260.696H214.708ZM301.054 287L288.285 262.616H288.19V287H266.877V219.032H298.558C304.062 219.032 308.766 220.024 312.67 222.008C316.573 223.928 319.486 226.584 321.406 229.976C323.39 233.304 324.382 237.08 324.382 241.304C324.382 245.848 323.102 249.88 320.542 253.4C318.046 256.92 314.43 259.448 309.694 260.984L324.478 287H301.054ZM288.19 248.408H296.638C298.686 248.408 300.222 247.96 301.246 247.064C302.27 246.104 302.782 244.632 302.782 242.648C302.782 240.856 302.238 239.448 301.149 238.424C300.126 237.4 298.622 236.888 296.638 236.888H288.19V248.408ZM375.83 219.032C382.934 219.032 389.142 220.472 394.454 223.352C399.83 226.232 403.958 230.232 406.838 235.352C409.718 240.472 411.158 246.296 411.158 252.824C411.158 259.288 409.718 265.112 406.838 270.296C403.958 275.48 399.83 279.576 394.454 282.584C389.142 285.528 382.934 287 375.83 287H347.51V219.032H375.83ZM373.91 267.992C378.71 267.992 382.518 266.68 385.334 264.056C388.15 261.432 389.558 257.688 389.558 252.824C389.558 247.96 388.15 244.216 385.334 241.592C382.518 238.968 378.71 237.656 373.91 237.656H368.822V267.992H373.91ZM456.486 236.024V244.376H477.606V260.408H456.486V270.008H480.486V287H435.174V219.032H480.486V236.024H456.486ZM570.022 287H548.71L526.15 252.824V287H504.838V219.032H526.15L548.71 253.784V219.032H570.022V287Z" fill="#f6f6f6"/>
<path d="M61.0422 145.636C61.5581 141.087 65.4067 137.65 69.9849 137.65H77.0233C81.6311 137.65 85.4947 141.13 85.9744 145.713L88.1812 166.794C88.7373 172.106 84.5713 176.731 79.2301 176.731H67.5942C62.2219 176.731 58.0462 172.055 58.6515 166.717L61.0422 145.636Z" fill="#f6f6f6"/>
<ellipse cx="73.6719" cy="35.8666" rx="36.1897" ry="35.8666" fill="#f6f6f6"/>
<path d="M61.4211 113.137C61.714 108.391 65.6487 104.692 70.4041 104.692H76.594C81.3657 104.692 85.3081 108.416 85.5794 113.18L88.6401 166.913C88.9342 172.076 84.8264 176.425 79.6546 176.425H67.0883C61.8998 176.425 57.7859 172.049 58.1054 166.871L61.4211 113.137Z" fill="#f6f6f6"/>
<path d="M104.862 35.8666C104.862 52.8716 90.9399 66.7332 73.6719 66.7332C56.4039 66.7332 42.4822 52.8716 42.4822 35.8666C42.4822 18.8616 56.4039 5 73.6719 5C90.9399 5 104.862 18.8616 104.862 35.8666Z" fill="#f6f6f6" stroke="#f6f6f6" stroke-width="10"/>
<circle cx="54.6077" cy="90.1512" r="54.6077" fill="#f6f6f6"/>
<ellipse cx="91.7667" cy="89.5049" rx="47.8221" ry="48.1453" fill="#f6f6f6"/>
<path d="M575.832 113.137C576.125 108.391 580.06 104.692 584.815 104.692H591.005C595.777 104.692 599.719 108.416 599.99 113.18L603.051 166.913C603.345 172.076 599.237 176.425 594.066 176.425H581.499C576.311 176.425 572.197 172.049 572.516 166.871L575.832 113.137Z" fill="#f6f6f6"/>
<path d="M611.518 42.329C611.518 59.334 597.596 73.1956 580.328 73.1956C563.06 73.1956 549.138 59.334 549.138 42.329C549.138 25.3241 563.06 11.4624 580.328 11.4624C597.596 11.4624 611.518 25.3241 611.518 42.329Z" fill="#f6f6f6" stroke="#f6f6f6" stroke-width="10"/>
<circle cx="569.019" cy="90.1512" r="54.6077" fill="#f6f6f6"/>
<ellipse cx="606.178" cy="83.6887" rx="47.8221" ry="48.1453" fill="#f6f6f6"/>
<path d="M259.988 24.6831C260.24 19.903 264.189 16.1561 268.976 16.1561H295.808C300.609 16.1561 304.565 19.9243 304.798 24.7194L311.678 166.342C311.927 171.478 307.831 175.779 302.689 175.779H261.522C256.365 175.779 252.263 171.455 252.534 166.306L259.988 24.6831Z" fill="#f6f6f6"/>
<path d="M422.025 24.6831C422.276 19.903 426.225 16.1561 431.012 16.1561H457.845C462.646 16.1561 466.601 19.9243 466.834 24.7194L473.715 166.342C473.964 171.478 469.867 175.779 464.725 175.779H423.558C418.402 175.779 414.3 171.455 414.571 166.306L422.025 24.6831Z" fill="#f6f6f6"/>
<path d="M188.031 24.6831C188.283 19.903 192.232 16.1561 197.019 16.1561H223.852C228.652 16.1561 232.608 19.9243 232.841 24.7194L239.721 166.342C239.971 171.478 235.874 175.779 230.732 175.779H189.565C184.409 175.779 180.307 171.455 180.578 166.306L188.031 24.6831Z" fill="#f6f6f6"/>
<path d="M351.291 24.6831C351.542 19.903 355.491 16.1561 360.278 16.1561H387.111C391.911 16.1561 395.867 19.9243 396.1 24.7194L402.98 166.342C403.23 171.478 399.133 175.779 393.991 175.779H352.824C347.668 175.779 343.566 171.455 343.837 166.306L351.291 24.6831Z" fill="#f6f6f6"/>
<rect x="168.024" y="89.8834" width="150.575" height="19.3874" rx="8" fill="#f6f6f6"/>
<rect x="333.462" y="68.502" width="150.575" height="19.3874" rx="8" fill="#f6f6f6"/>
</svg>
